<svg width="995" height="1117" viewBox="0 0 995 1117" fill="none" xmlns="http://www.w3.org/2000/svg">
<rect width="995" height="1117" fill="white"/>
<path d="M450.662 807.202C410.835 807.202 375.985 798.863 346.114 782.185C316.243 765.507 292.969 742.232 276.291 712.361C259.613 682.491 251.274 647.641 251.274 607.813V446.51C251.274 406.682 259.613 371.833 276.291 341.962C292.969 312.091 316.243 288.817 346.114 272.139C375.985 255.461 410.835 247.122 450.662 247.122C490.49 247.122 525.34 255.461 555.211 272.139C585.082 288.817 608.356 312.091 625.034 341.962C641.712 371.833 650.051 406.682 650.051 446.51V607.813C650.051 647.641 641.712 682.491 625.034 712.361C608.356 742.232 585.082 765.507 555.211 782.185C525.34 798.863 490.49 807.202 450.662 807.202ZM450.662 710.868C468.585 710.868 484.765 706.636 499.203 698.173C513.64 689.709 525.091 678.259 533.554 663.821C542.018 649.384 546.249 633.204 546.249 615.281V438.296C546.249 420.373 542.018 404.193 533.554 389.756C525.091 375.318 513.64 363.867 499.203 355.404C484.765 346.941 468.585 342.709 450.662 342.709C432.74 342.709 416.56 346.941 402.122 355.404C387.685 363.867 376.234 375.318 367.771 389.756C359.307 404.193 355.076 420.373 355.076 438.296V615.281C355.076 633.204 359.307 649.384 367.771 663.821C376.234 678.259 387.685 689.709 402.122 698.173C416.56 706.636 432.74 710.868 450.662 710.868Z" fill="black"/>
<path d="M648.309 853.385V848.698L721.361 737.053H656.579V704.524H779.251V709.21L706.475 820.856H776.495V853.385H648.309Z" fill="black"/>
</svg>
